<svg width="22" height="22" viewBox="0 0 22 22" fill="none" xmlns="http://www.w3.org/2000/svg">
<path fill-rule="evenodd" clip-rule="evenodd" d="M22 11C22 17.0751 17.0751 22 11 22C4.92487 22 0 17.0751 0 11C0 4.92487 4.92487 0 11 0C17.0751 0 22 4.92487 22 11ZM7 6.82937L8.10638 8.28951C8.97447 7.34965 9.80851 6.91329 10.8128 6.91329C11.9702 6.91329 12.5149 7.83636 12.5149 8.59161C12.5149 9.99118 11.6616 10.8186 9.0528 13.3485C8.47064 13.913 7.80106 14.5623 7.03404 15.3217V17H15V14.9357H10.2681C10.3262 14.878 10.3839 14.8208 10.441 14.7642C13.2101 12.0185 14.7787 10.4632 14.7787 8.44056C14.7787 6.51049 13.5191 5 11.0681 5C9.41702 5 7.98723 5.77203 7 6.82937Z" fill="white"/>
</svg>
