<svg width="24" height="76" viewBox="0 0 24 76" fill="none" xmlns="http://www.w3.org/2000/svg">
<g id="circuit_1">
<path id="Oval" fill-rule="evenodd" clip-rule="evenodd" d="M12 23C18.0751 23 23 18.0751 23 12C23 5.92487 18.0751 1 12 1C5.92487 1 1 5.92487 1 12C1 18.0751 5.92487 23 12 23Z" fill="white" fill-opacity="0.2"/>
<path id="1" fill-rule="evenodd" clip-rule="evenodd" d="M16 15.9211V18H8.26013V15.9211H11.3286V8.80563L9.18228 10.0732L8.30424 8.4507L12.4506 6H13.54V15.9211H16Z" fill="white"/>
<g id="Group">
<path id="Combined Shape" fill-rule="evenodd" clip-rule="evenodd" d="M23 64C23 70.0751 18.0751 75 12 75C5.92487 75 1 70.0751 1 64C1 57.9249 5.92487 53 12 53C18.0751 53 23 57.9249 23 64ZM8 59.8294L9.10638 61.2895C9.97447 60.3497 10.8085 59.9133 11.8128 59.9133C12.9702 59.9133 13.5149 60.8364 13.5149 61.5916C13.5149 62.9912 12.6616 63.8186 10.0528 66.3485C9.47064 66.913 8.80106 67.5623 8.03404 68.3217V70H16V67.9357H11.2681C11.3262 67.878 11.3839 67.8208 11.441 67.7642C14.2101 65.0185 15.7787 63.4632 15.7787 61.4406C15.7787 59.5105 14.5191 58 12.0681 58C10.417 58 8.98723 58.772 8 59.8294Z" fill="white"/>
</g>
<g id="icon / 24 / recycle">
<path id="Shape" fill-rule="evenodd" clip-rule="evenodd" d="M4 38C4 35.5366 5.11989 33.2611 7 31.7545V33C7 33.5523 7.44772 34 8 34C8.55228 34 9 33.5523 9 33V29C9 28.4477 8.55228 28 8 28H4C3.44772 28 3 28.4477 3 29C3 29.5523 3.44772 30 4 30H5.99912C3.50085 31.8767 2 34.8145 2 38C2 40.6874 3.06632 43.2085 4.92893 45.0711C5.41674 45.5589 5.9537 45.9955 6.53098 46.3732C6.99311 46.6756 7.6129 46.5461 7.9153 46.084C8.2177 45.6218 8.08821 45.0021 7.62607 44.6996C7.16393 44.3972 6.73388 44.0476 6.34315 43.6569C4.85189 42.1656 4 40.1515 4 38ZM20 38C20 40.464 18.8794 42.7396 17 44.2455V43C17 42.4477 16.5523 42 16 42C15.4477 42 15 42.4477 15 43V47C15 47.5523 15.4477 48 16 48H20C20.5523 48 21 47.5523 21 47C21 46.4477 20.5523 46 20 46H18.0009C20.4982 44.1243 22 41.1864 22 38C22 35.3126 20.9337 32.7915 19.0711 30.9289C18.5832 30.4411 18.0462 30.0045 17.4689 29.6267C17.0068 29.3243 16.387 29.4538 16.0846 29.916C15.7822 30.3781 15.9117 30.9979 16.3738 31.3003C16.836 31.6027 17.2661 31.9524 17.6569 32.3431C19.1481 33.8344 20 35.8485 20 38Z" fill="white"/>
</g>
</g>
</svg>
