<svg width="24" height="76" viewBox="0 0 24 76" fill="none" xmlns="http://www.w3.org/2000/svg">
<g id="circuit_1">
<path id="Combined Shape" fill-rule="evenodd" clip-rule="evenodd" d="M23 12C23 18.0751 18.0751 23 12 23C5.92487 23 1 18.0751 1 12C1 5.92487 5.92487 1 12 1C18.0751 1 23 5.92487 23 12ZM16 18V15.9211H13.54V6H12.4506L8.30427 8.4507L9.18232 10.0732L11.3287 8.80563V15.9211H8.26016V18H16Z" fill="white"/>
<g id="Group">
<path id="Oval" fill-rule="evenodd" clip-rule="evenodd" d="M12 75C18.0751 75 23 70.0751 23 64C23 57.9249 18.0751 53 12 53C5.92487 53 1 57.9249 1 64C1 70.0751 5.92487 75 12 75Z" fill="white" fill-opacity="0.195086"/>
<path id="2" fill-rule="evenodd" clip-rule="evenodd" d="M9.10638 61.2895L8 59.8294C8.98723 58.772 10.417 58 12.0681 58C14.5191 58 15.7787 59.5105 15.7787 61.4406C15.7787 63.5049 14.1447 65.0825 11.2681 67.9357H16V70H8.03404V68.3217C12.2383 64.1594 13.5149 63.3035 13.5149 61.5916C13.5149 60.8364 12.9702 59.9133 11.8128 59.9133C10.8085 59.9133 9.97447 60.3497 9.10638 61.2895Z" fill="white"/>
</g>
<g id="icon / 24 / recycle">
<path id="Shape" fill-rule="evenodd" clip-rule="evenodd" d="M4 38C4 35.5366 5.11989 33.2611 7 31.7545V33C7 33.5523 7.44772 34 8 34C8.55228 34 9 33.5523 9 33V29C9 28.4477 8.55228 28 8 28H4C3.44772 28 3 28.4477 3 29C3 29.5523 3.44772 30 4 30H5.99912C3.50085 31.8767 2 34.8145 2 38C2 40.6874 3.06632 43.2085 4.92893 45.0711C5.41674 45.5589 5.9537 45.9955 6.53098 46.3732C6.99311 46.6756 7.6129 46.5461 7.9153 46.084C8.2177 45.6218 8.08821 45.0021 7.62607 44.6996C7.16393 44.3972 6.73388 44.0476 6.34315 43.6569C4.85189 42.1656 4 40.1515 4 38ZM20 38C20 40.464 18.8794 42.7396 17 44.2455V43C17 42.4477 16.5523 42 16 42C15.4477 42 15 42.4477 15 43V47C15 47.5523 15.4477 48 16 48H20C20.5523 48 21 47.5523 21 47C21 46.4477 20.5523 46 20 46H18.0009C20.4982 44.1243 22 41.1864 22 38C22 35.3126 20.9337 32.7915 19.0711 30.9289C18.5832 30.4411 18.0462 30.0045 17.4689 29.6267C17.0068 29.3243 16.387 29.4538 16.0846 29.916C15.7822 30.3781 15.9117 30.9979 16.3738 31.3003C16.836 31.6027 17.2661 31.9524 17.6569 32.3431C19.1481 33.8344 20 35.8485 20 38Z" fill="white"/>
</g>
    <g id="icon-/-24-/-error" transform="translate(6.000000, 32.500000)" fill-rule="nonzero">
        <path fill-rule="evenodd" clip-rule="evenodd" d="M7.1636 0.6875C6.64644 -0.229167 5.35356 -0.229167 4.8364 0.6875L0.182014 8.9375C-0.335141 9.85417 0.311302 11 1.34561 11H10.6544C11.6887 11 12.3351 9.85417 11.818 8.9375L7.1636 0.6875ZM5 4C5 3.44772 5.44772 3 6 3C6.55228 3 7 3.44772 7 4V6C7 6.55228 6.55228 7 6 7C5.44772 7 5 6.55228 5 6V4ZM5 8.3C5 8.13431 5.13432 8 5.3 8H6.7C6.86568 8 7 8.13431 7 8.3V9.7C7 9.86569 6.86568 10 6.7 10H5.3C5.13432 10 5 9.86569 5 9.7V8.3Z" fill="#E8513F"/>
    </g>
</g>
</svg>
